# xmcd
#
# Track frame offsets: 
#        150
#        15884
#        34968
#        47193
#        62600
#        78117
#        92688
#        107959
#        120968
#        133396
#        156993
#
# Disc length: 2291 seconds
#
# Revision: 0
# Processed by: cddbd v1.5.2PL0 Copyright (c) Steve Scherf et al.
# Submitted via: ExactAudioCopy v0.95b4
#
DISCID=8708f10b
DTITLE=Kelly Willis and Bruce Robison - Happy Holidays
DYEAR=2006
DGENRE=Oldies
TTITLE0=Santa Baby
TTITLE1=A Winter's Tale
TTITLE2=In the Bleak Midwinter
TTITLE3=Baby, It's Cold Outside
TTITLE4=Christmas Waltz
TTITLE5=Please Daddy Don't Get Drunk
TTITLE6=Blue Christmas
TTITLE7=Shut In at Christmas
TTITLE8=Santa Looked a Lot Like Daddy
TTITLE9=Have Yourself a Merry Little Christmas
TTITLE10=Oklahoma Christmas
EXTD=
EXTT0=
EXTT1=
EXTT2=
EXTT3=
EXTT4=
EXTT5=
EXTT6=
EXTT7=
EXTT8=
EXTT9=
EXTT10=
PLAYORDER=
